<svg version="1.2" xmlns="http://www.w3.org/2000/svg" viewBox="0 0 518 518" width="128" height="128">
	<style>
		.s0 { fill: #fefefe } 
	</style>
	<path id="Path 0" fill-rule="evenodd" class="s0" d="m351 0l-0.56 3.75c-0.31 2.06-1.89 8.36-3.5 14-1.62 5.64-8.28 24.09-14.8 41-6.52 16.91-15.47 39.3-19.89 49.75-4.41 10.45-10.62 25.3-13.79 33-3.17 7.7-12.91 28.85-21.64 47-8.73 18.15-15.74 33.64-15.59 34.43 0.15 0.78 9.43-8.42 20.67-20.5 11.22-12.06 25.51-26.99 31.75-33.18 6.24-6.19 13.9-12.94 17.02-15 4.89-3.24 6.43-3.74 11.25-3.7 3.91 0.03 7.38 0.87 11.58 2.8 3.3 1.52 7.28 3.98 8.84 5.46 1.56 1.48 3.88 4.49 5.16 6.69 1.27 2.2 2.79 6.47 3.37 9.5 0.57 3.03 1.5 11.35 2.07 18.5 0.56 7.15 1.51 22.9 2.12 35 0.92 18.49 0.84 25.27-0.52 42.5-0.89 11.27-2.51 28.82-3.6 39-1.09 10.18-2.91 25.02-4.05 33-1.13 7.98-3.12 19.68-4.41 26-1.29 6.32-4.59 20.73-7.33 32-2.74 11.27-6.76 25.9-8.93 32.5-2.17 6.6-5.67 16.05-7.77 21-2.1 4.95-5.23 11.25-6.96 14-1.73 2.75-5.39 7.02-8.14 9.5-2.75 2.48-8.23 6.19-12.17 8.25-5.43 2.84-8.34 3.74-11.93 3.71-2.61-0.01-5.72-0.58-6.91-1.25-1.19-0.66-4.56-4.57-7.5-8.67-2.94-4.11-7.59-9.18-10.34-11.27-2.75-2.09-9.27-5.98-14.5-8.66-5.22-2.67-13.1-6.03-17.5-7.47-4.4-1.43-11.15-3.05-15-3.6-3.85-0.55-9.59-1.01-12.75-1.02-4.69-0.02-6.95 0.63-12.25 3.48-3.57 1.93-7.63 3.5-9 3.5-1.5 0-4.3 1.6-11.5 8l-2.46-2.75c-2.26-2.53-2.69-2.65-5.25-1.47-1.53 0.7-2.92 1.15-3.07 1-0.16-0.16-0.54-2.3-0.85-4.78-0.54-4.41-0.44-4.61 5.29-10.33 3.55-3.55 8.38-7.06 12.34-8.97 3.57-1.73 6.72-3.42 7-3.76 0.28-0.34 2.75-1.38 5.5-2.31 2.75-0.92 9.95-2.77 16-4.09 6.05-1.32 14.6-3.12 19-4 4.4-0.87 13.18-2.09 19.5-2.7 6.32-0.62 12.62-1.09 14-1.04 1.37 0.04 11.39 1.45 22.25 3.14 15.71 2.43 20.57 2.86 23.75 2.06 2.2-0.55 5.24-2.06 6.75-3.35 1.51-1.3 4.16-5.01 5.89-8.25 1.72-3.25 4.28-9.28 5.69-13.4 1.41-4.12 3.7-12 5.11-17.5 1.4-5.5 3.88-18.1 5.51-28 1.63-9.9 3.64-25.2 4.47-34 0.84-8.8 1.81-23.2 2.16-32 0.38-9.26 0.17-22.32-0.49-31-0.62-8.25-1.84-19.72-2.7-25.5-0.86-5.78-2.92-15.9-4.58-22.5-1.66-6.6-4.66-15.5-6.67-19.79-2-4.28-3.87-7.75-4.14-7.7-0.27 0.04-1.85 1.3-3.5 2.81-1.65 1.5-6.57 6.54-10.93 11.2-4.36 4.67-12.93 13.66-19.04 19.98-6.11 6.32-18.06 19.15-26.57 28.5-8.5 9.35-19.73 21.42-24.96 26.81-5.27 5.45-10.61 10.07-12 10.38-1.38 0.31-4.07 0.08-6-0.51-2.48-0.76-4.01-2.11-5.25-4.63-0.96-1.95-1.75-4.45-1.75-5.55 0-1.1 3.79-11.79 8.42-23.75 4.63-11.96 13-33.45 18.62-47.75 5.61-14.3 12.2-31.63 14.65-38.5 2.44-6.88 6.46-19.47 8.93-28 2.46-8.53 5.57-20.9 6.89-27.5 2.28-11.33 2.31-12.1 0.7-13.75-1.62-1.67-2.01-1.47-7.71 4.05-3.3 3.2-8.25 7.34-11 9.2-2.75 1.86-7.25 4.38-10 5.6-2.75 1.22-6.8 2.53-9 2.9-2.55 0.44-5.99 0.13-9.5-0.86-3.03-0.85-7.71-3.03-10.41-4.84-2.71-1.82-11.16-10.46-18.87-19.3-7.67-8.8-15.81-18.06-18.09-20.57-2.27-2.52-5.59-7.58-7.38-11.25-1.79-3.67-3.7-6.68-4.25-6.68-0.55 0-1.18-0.79-1.41-1.75-0.22-0.96-0.22-2.76 0-4 0.29-1.56 1.1-2.24 2.66-2.22 1.24 0.02 3.82 0.91 5.75 1.97 1.93 1.07 6.2 3.09 9.5 4.49 3.3 1.41 7.01 2.55 8.25 2.54 1.24-0.02 3.82 0.64 5.75 1.47 2.09 0.9 5.45 4.01 8.35 7.75 2.67 3.44 5.59 6.59 6.5 7 0.91 0.41 4.69 0.75 8.4 0.76 3.71 0.01 9.22-0.71 12.25-1.59 3.03-0.87 9.55-3.62 14.5-6.11 4.95-2.48 12.15-6.7 16-9.37 3.85-2.68 12.65-9.72 19.55-15.65 6.9-5.94 16.75-14.61 21.88-19.29 5.14-4.67 10.51-9.72 11.95-11.2 2.56-2.64 2.9-2.7 27.12-2.8zm126.5 411.6c9.9 0.22 21.04 0.4 24.75 0.4 6.19 0 6.98 0.25 12.25 5.9l0.14 30.8c0.07 16.94-0.26 32.15-0.73 33.8-0.57 1.98-0.29 6.41 0.82 13 1.64 9.71 1.63 10.13-0.27 14.37-1.08 2.4-2.86 4.82-3.96 5.36-1.11 0.56-7.56 0.87-14.5 0.7-7.89-0.19-13.24 0.12-14.5 0.82-1.39 0.78-13.82 1.06-79.78 0.75l-1.96-2.5c-1.81-2.32-1.94-4.06-1.79-24.5 0.08-12.1 0.04-25.6-0.09-30-0.14-4.4-0.24-10.48-0.23-13.5 0.01-3.02 0.21-10.83 0.44-17.34 0.36-10.3 0.67-12.06 2.41-13.56 1.1-0.94 5.38-2.31 9.5-3.04 4.34-0.76 10.87-1.11 15.5-0.81 4.4 0.28 13.85 0.16 21-0.28 7.15-0.43 21.1-0.6 31-0.37zm-71.25 8.65c-0.91 0.54-1.22 4.38-1.16 14 0.06 7.29-0.06 27.42-0.25 44.75l-0.34 31.5c74.81-0.22 97.32-0.69 99-1.22l3-0.94c0.43-13.83 0.55-21.22 0.54-25.34 0-4.13 0.03-12.23 0.08-18 0.05-5.77 0.41-17.93 0.79-27 0.39-9.08 0.34-17.29-0.1-18.25-0.75-1.63-3.47-1.73-39.06-1.51-21.04 0.12-43.43 0.46-49.75 0.75-6.32 0.28-12.06 0.85-12.75 1.26zm-289.07-386.25c0.45 0 3.86 1.38 7.57 3.06 3.71 1.69 7.1 3.6 7.52 4.25 0.43 0.66 0.54 2.65-0.27 7.69l8.75-2.49c4.81-1.37 9.87-2.5 11.25-2.51 1.37-0.02 3.33 0.54 4.34 1.23 1.51 1.04 1.6 1.47 0.5 2.34-0.74 0.6-3.37 1.64-5.84 2.33-2.47 0.69-8.89 2.57-14.25 4.17-5.36 1.61-9.75 3.27-9.75 3.68 0 0.41 2.36 0.82 5.25 0.92 2.89 0.09 6.94 0.87 9 1.75 2.91 1.23 3.75 2.14 3.75 4.08 0 2.25 0.4 2.5 4 2.5 2.2 0 5.12 0.45 6.5 1 1.89 0.76 2.5 1.73 2.5 4 0 2.18-0.89 3.72-3.25 5.62-1.79 1.44-4.6 3.3-6.25 4.13-1.65 0.83-3.22 1.67-3.5 1.87-0.28 0.2 0.74 1.49 5 5.38l-2.25 2.99c-1.24 1.64-1.87 3.33-1.41 3.75 0.45 0.42 2.93 0.77 5.5 0.79 2.64 0.01 5.85 0.77 7.41 1.75 2.28 1.42 2.6 2.11 1.87 3.97-0.61 1.56-2.92 3.02-14.18 7.25l0.03 4.25c0.02 2.7 0.48 4.26 1.28 4.27 0.69 0.01 4.18-0.86 7.75-1.95 3.57-1.08 8.53-2.41 11-2.95 2.79-0.6 5.17-0.62 6.25-0.05 0.96 0.51 1.75 1.83 1.75 2.93 0 1.1-1.01 2.68-2.25 3.52-1.24 0.83-5.63 1.96-9.75 2.5-4.13 0.54-9.07 1.49-11 2.11-1.93 0.61-3.95 1.53-4.5 2.04-0.57 0.54-1.21 9.74-1.5 21.42-0.41 16.74-0.77 20.66-2 21.42-0.82 0.52-3.97 1.45-7 2.08-4.59 0.96-7.22 0.84-15.89-0.72-7.66-1.38-10.95-2.44-14.61-6.18l-13.5 7.4c-7.43 4.07-15.41 8.98-17.75 10.91-3.44 2.83-4.12 3.93-3.59 5.75 0.36 1.24 1.26 2.59 2 3 0.74 0.41 1.34 1.87 1.34 5.75l3.75-1.6c2.06-0.87 5.1-2.2 6.75-2.95 1.65-0.75 5.47-2.31 8.5-3.47 3.02-1.16 6.51-1.85 7.75-1.54 1.24 0.31 2.27 1.35 2.28 2.31 0.03 1.18-1.52 2.35-4.75 3.59-2.63 1.01-9.63 4.16-15.55 7-5.93 2.84-10.76 5.38-10.74 5.66 0.02 0.27 2.84 2.35 6.27 4.62 3.43 2.27 8.71 6.37 11.74 9.11 3.03 2.74 6.96 5.72 8.75 6.63 1.79 0.9 9.89 2.58 18 3.72 8.11 1.15 15.09 2.27 15.5 2.5 0.41 0.23 0.75 1.09 0.75 1.92 0 0.82-1.24 1.97-2.75 2.55-1.51 0.58-7.47 1.33-13.25 1.67-9.37 0.55-10.98 0.39-15-1.49-2.47-1.16-9.34-6.41-15.25-11.67-5.91-5.26-11.65-10.01-12.75-10.56-1.1-0.55-2.22-1-2.5-1-0.28 0-1 1.91-1.61 4.25-0.62 2.34-2.12 6.5-3.34 9.25-1.22 2.75-3.75 6.54-5.63 8.43-1.88 1.88-7.02 5.08-11.42 7.1-4.4 2.03-10.36 4.42-13.25 5.33-2.89 0.9-5.48 2.09-5.75 2.64-0.28 0.55-1.85 1-3.5 1q-3 0-3-1.5c0-0.83 1.69-2.76 3.75-4.3 2.06-1.54 7.52-5.02 12.12-7.75 4.61-2.72 10.57-7.09 13.25-9.7 2.69-2.61 5.5-6.21 6.26-8 0.76-1.79 1.66-4.26 2-5.5 0.56-2.03 0.35-2.19-2.13-1.63-1.51 0.34-4.55 0.06-6.75-0.63-2.2-0.68-6.16-2.19-8.79-3.36-2.63-1.17-4.77-2.69-4.75-3.38 0.02-0.69 0.6-1.07 1.29-0.85 0.69 0.22 5.3-0.38 10.25-1.34 4.95-0.96 9.56-2.04 10.25-2.4 0.69-0.36 1.25-2.01 1.25-3.66 0-1.65-1.35-5.7-3-9-2.41-4.83-3.63-6.19-6.25-6.95-1.79-0.52-3.81-1.65-4.5-2.5-0.69-0.85-0.91-1.75-0.5-1.99 0.41-0.24 3.9-0.66 7.75-0.92 3.85-0.27 9.25-1.25 12-2.18 2.75-0.93 9.05-3.37 14-5.42 4.95-2.05 11.47-5.15 14.5-6.9 3.6-2.07 6.2-4.46 7.51-6.9 1.26-2.34 4.45-5.36 8.5-8.05 3.57-2.37 8.18-4.74 10.24-5.25 2.42-0.61 4.46-0.58 5.75 0.06 1.38 0.69 1.92 1.84 1.75 3.72-0.18 1.94-1.68 3.79-5.25 6.49-2.75 2.07-5.11 4.22-5.25 4.78-0.14 0.55 1.55 1.01 3.75 1.01 2.2 0 5.69-0.7 7.75-1.56 2.06-0.86 4.55-2.32 5.53-3.25 1.51-1.43 1.78-3.42 1.75-12.94-0.02-6.19-0.25-11.25-0.53-11.25-0.28 0-6.91 2.3-14.75 5.12-7.84 2.82-16.95 5.99-20.25 7.05-4.33 1.4-7.53 1.78-11.5 1.37-3.23-0.33-6.89-1.49-8.85-2.8-1.84-1.23-4.09-3.46-5-4.95-0.91-1.48-1.43-2.98-1.15-3.32 0.28-0.35 3.42-0.1 7 0.55 5.35 0.96 8.36 0.89 17-0.44 5.78-0.88 16.57-3.43 24-5.67 7.43-2.24 13.79-4.6 14.14-5.24 0.35-0.64 0.44-2.75 0.19-4.67-0.25-1.93-0.54-3.61-0.64-3.73-0.11-0.13-3.12 0.88-6.69 2.26-3.57 1.37-7.85 2.49-9.5 2.5-1.65 0-3.57-0.57-4.27-1.26-0.69-0.7-1.26-2.28-1.25-3.52 0.01-1.24 0.64-3.49 1.39-5 0.75-1.51 3.79-4.88 12.13-12.2l-3.75-0.03c-3.33-0.02-3.75-0.3-3.75-2.52 0-1.39 1.22-3.73 2.75-5.27 1.51-1.53 4.1-3.73 5.75-4.9 2.76-1.95 2.9-2.33 1.75-4.73-0.76-1.59-3.58-3.76-7.25-5.6-3.3-1.65-6.11-3.48-6.25-4.08-0.14-0.59-2.86 2.9-6.04 7.75-4.5 6.86-5.66 9.39-5.19 11.33 0.34 1.37 0.02 5.51-0.71 9.18-1.23 6.3-1.19 6.81 0.69 8.81 1.77 1.88 1.86 2.49 0.76 5.32-0.68 1.75-1.24 3.98-1.25 4.94 0 0.96-1.02 4.02-2.26 6.8-1.35 3.03-3.05 5.27-4.25 5.59-1.14 0.3-2.65-0.16-3.5-1.07-1.32-1.4-1.34-3.11-0.18-13.83 0.72-6.73 1.51-13.25 1.75-14.49 0.24-1.24 0.2-2.25-0.07-2.25-0.28 0-3.31 2.52-6.75 5.6-3.44 3.08-8.28 6.99-10.75 8.7-2.48 1.7-8.1 4.86-12.5 7.01-4.94 2.42-9.34 3.89-11.5 3.84-1.93-0.04-3.73-0.31-4-0.61-0.28-0.29 0.24-1.32 1.15-2.28 0.91-0.97 4.06-3.07 7-4.68 2.94-1.61 8.5-5.03 12.35-7.62 3.85-2.58 9.25-6.71 12-9.17 2.75-2.47 7.86-8.27 11.36-12.89 3.51-4.62 7.67-10.99 9.25-14.15 1.59-3.16 2.87-5.86 2.86-6-0.02-0.14-3.96 1.03-8.75 2.6-4.8 1.57-11.42 3.09-14.72 3.36-3.3 0.28-7.91 0.01-10.25-0.6-2.46-0.64-4.67-1.95-5.25-3.11-0.6-1.2-0.65-2.7-0.12-3.75 0.49-0.96 1.5-2.32 2.25-3.02 0.88-0.82 5.32-1.4 12.37-1.64 6.05-0.2 14.6-1.13 19-2.06 4.4-0.92 8.34-1.99 8.76-2.36 0.41-0.37 1.28-4.83 1.93-9.92 0.64-5.09 1.54-9.25 1.99-9.25zm4.42 30.75c0.32 0.41 2.12 0.75 3.99 0.75 1.87 0 3.38-0.23 3.35-0.5-0.03-0.28-1.33-1.53-2.9-2.78-2.84-2.28-2.86-2.28-3.95-0.25-0.6 1.12-0.82 2.37-0.49 2.78zm75.9 168.3c1.65-0.04 5.14 0.61 7.75 1.44 2.61 0.83 5.43 2.52 6.26 3.76 0.83 1.24 1.5 3.49 1.5 5q-0.01 2.75-4.26 7.41c-2.34 2.56-9.43 8.94-15.75 14.17-6.32 5.23-16.48 14.49-22.57 20.59-7.01 7.02-12.59 13.65-15.2 18.08-2.28 3.85-5.7 11.72-7.6 17.5-1.91 5.77-5.07 17.47-7.04 26-1.96 8.52-3.68 17.83-3.83 20.67-0.14 2.84 0.08 5.54 0.51 6 0.42 0.46 5.14-2.19 10.5-5.88 5.35-3.69 14.67-10.66 20.7-15.5 6.04-4.83 19.48-16.67 29.88-26.29 10.39-9.63 22.11-20.45 26.03-24.05 4.18-3.85 8.77-7.09 11.12-7.85 2.56-0.83 5.44-1.03 8-0.55 2.2 0.42 5.01 1.82 6.25 3.11 1.24 1.28 2.52 3.58 2.84 5.09 0.41 1.9-0.22 4.3-2.01 7.75-1.44 2.75-6.72 9.72-11.75 15.5-5.03 5.77-15.09 17.02-22.36 25-7.27 7.97-17.89 19.01-23.59 24.52-5.71 5.52-16.04 14.74-22.97 20.5-6.92 5.77-15.24 12.5-18.49 14.98-3.25 2.47-11.54 8.97-18.41 14.43-6.88 5.46-16.79 12.73-22.01 16.16-5.23 3.43-13.1 8.02-17.5 10.21-4.4 2.19-10.25 4.74-13 5.68-2.75 0.94-7.48 1.96-10.5 2.26q-5.5 0.54-10.5-1.08c-2.85-0.92-6.34-3.03-8.11-4.89-1.7-1.8-4.46-5.3-6.12-7.77-1.67-2.48-6.83-11.03-11.47-19-4.64-7.98-11.21-19.45-14.59-25.5-3.37-6.05-6.44-12.58-6.81-14.5-0.37-1.93-1.4-4.73-2.29-6.23-1.49-2.52-1.48-2.99 0.14-6.25 0.96-1.93 2.31-3.53 3-3.53 0.69-0.01 3.95 1.58 7.25 3.53 3.4 2.01 9.9 7.6 15 12.92 4.95 5.15 10.24 9.86 11.75 10.46 1.51 0.61 6.91 1.1 12 1.11 5.09 0 14.2-0.9 20.25-2 6.05-1.1 13.02-2.61 15.5-3.36 2.47-0.75 5.62-1.95 9.5-3.98l-0.78-17.08c-0.43-9.4-1.24-22.27-1.8-28.59-0.57-6.33-2.37-17.58-4-25-1.64-7.43-3.41-14.96-3.95-16.75-0.53-1.79-1.98-3.9-3.22-4.69-1.24-0.79-15.3-3.49-31.25-6-15.95-2.51-32.6-5.24-37-6.06-4.9-0.91-9.36-2.44-11.5-3.93-1.93-1.34-4.75-3.03-6.28-3.75-1.53-0.73-2.76-2.11-2.75-3.07 0.02-0.96 0.93-2.2 2.03-2.75 1.1-0.55 12.46-2.56 25.25-4.47 17.9-2.67 26.59-3.49 37.75-3.53 7.97-0.04 21.25 0.06 29.5 0.22 14.52 0.27 15.32 0.18 25-2.93 5.5-1.77 20.8-7.32 34-12.33 13.2-5.02 27.37-10.42 31.5-11.99 4.12-1.57 8.85-2.89 10.5-2.92zm243.42 188.2c3.35-0.14 6.31 0.2 6.58 0.75 0.27 0.55-0.06 1.7-0.75 2.54-0.69 0.85-2.15 1.51-3.25 1.47-1.1-0.04-2.9 0.83-4 1.94-1.78 1.79-1.84 2.18-0.5 3.58 1.16 1.2 3.63 1.55 10.75 1.51 5.72-0.02 9.54 0.38 10 1.07 0.41 0.61 0.07 1.51-0.75 1.99-0.82 0.48-4.99 0.88-9.25 0.88-4.26 0.01-7.76 0.36-7.76 0.77-0.01 0.41 2.13 2.54 4.75 4.73 2.62 2.18 6.33 4.52 8.26 5.2 1.93 0.68 4.51 1.25 5.75 1.28 1.39 0.02 2.44 0.8 2.75 2.04 0.27 1.1 0.27 2.45 0 3-0.27 0.55-1.06 1-1.75 0.99-0.69 0-2.82-0.43-4.75-0.95-1.93-0.52-6.65-3.68-10.5-7.03-3.85-3.34-7.45-5.91-8-5.71-0.55 0.2-1 1.68-1 3.28 0 2.51 0.55 3.09 4 4.23 2.2 0.72 4.79 2.07 5.75 3 1.08 1.05 1.98 3.97 2.38 7.69 0.34 3.3 0.35 7.24 0 8.75-0.46 1.99-1.52 3.02-3.88 3.72-1.79 0.53-7.16 1.09-11.95 1.25-6.16 0.2-9.08-0.1-10-1.03-0.71-0.72-1.56-3.87-1.87-7-0.32-3.13-0.32-6.72 0-7.99 0.33-1.35 1.19-2.17 2.07-1.99 0.82 0.17 1.63 1.21 1.79 2.3 0.28 1.82 0.88 1.95 7.26 1.49 5.18-0.37 6.96-0.18 6.96 0.75-0.01 0.69-0.91 1.7-2.01 2.25-1.1 0.55-4.25 1-7 1-4.33 0-5 0.27-5 2 0 1.1 1.01 2.51 2.25 3.14 1.42 0.72 4.66 0.91 8.75 0.53 3.57-0.34 7.08-1.19 7.79-1.89 0.72-0.7 1.28-2.52 1.25-4.03-0.02-1.51-0.72-4.33-1.54-6.25-0.82-1.93-2.29-3.57-3.25-3.66-0.96-0.09-4.41-0.21-7.65-0.25-3.81-0.06-6.03-0.53-6.25-1.34-0.19-0.69 1-1.93 2.65-2.75 2.13-1.07 3-2.22 3-4 0-1.38-0.45-2.73-1-3-0.55-0.28-2.35 0.17-4 1-1.87 0.93-3.19 1.12-3.5 0.5-0.27-0.55-0.05-1.9 0.5-3 0.95-1.9 0.66-2-5.75-2.02-3.71 0-7.43-0.41-8.25-0.91-0.94-0.56-1.22-1.49-0.75-2.48 0.6-1.27 2.79-1.64 11-1.84 9.8-0.24 10.26-0.35 10.5-2.5 0.23-2.11-0.08-2.23-5.17-2-2.99 0.14-5.69-0.09-6-0.5-0.32-0.41-0.35-1.2-0.08-1.75 0.27-0.55 2.41-1.53 4.75-2.19 2.34-0.65 5.26-1.23 6.48-1.29 1.23-0.06 2.44-0.32 2.68-0.57 0.24-0.25 3.17-0.56 6.51-0.7zm-19.69 24.36c0.54 0.28 0.89 1.04 0.79 1.7-0.11 0.65-1.84 2.64-3.85 4.41-2.02 1.78-5.37 3.58-7.44 4-3.16 0.66-3.79 0.51-3.88-0.91-0.08-1.09 2.3-3.13 6.64-5.7 3.72-2.2 7.21-3.78 7.74-3.5zm67.65 13.4c0.87 0.68 1.48 2.3 1.35 3.61-0.18 1.87 0.26 2.38 2.02 2.4 1.24 0 2.93 0.4 3.75 0.88 0.82 0.48 1.16 1.38 0.75 1.99-0.41 0.61-2.1 1.11-3.75 1.11-1.68 0-3.33 0.67-3.75 1.51-0.41 0.83-0.52 1.74-0.25 2.03 0.27 0.28 2.75 0.96 5.5 1.51 2.75 0.55 5.68 1.68 6.5 2.51 1.33 1.34 1.33 1.62 0 2.45-0.82 0.52-2.18 0.77-3 0.56-0.82-0.21-2.74-0.65-4.25-0.98-1.56-0.33-2.75-0.16-2.75 0.41 0 0.55 2.93 2.8 6.5 5 3.57 2.2 6.5 4.45 6.5 5 0 0.55-0.79 1.24-1.75 1.53-0.99 0.31-3.8-0.78-6.5-2.5-2.61-1.67-5.2-2.81-5.75-2.53-0.55 0.27-0.99 1.29-0.98 2.25 0.01 0.96-0.56 2.58-1.25 3.6-0.88 1.29-2.8 1.96-6.27 2.2-2.8 0.19-5.29 0.91-5.66 1.64-0.37 0.72-0.4 1.98-0.08 2.81 0.33 0.82 1.08 1.83 1.67 2.23 0.59 0.41 3.88 0.75 7.32 0.75 3.44 0.01 7.15-0.43 8.25-0.98 1.1-0.55 2-1.9 2-3q0-2 1.75-1.74c1.19 0.17 1.83 1.3 2 3.5 0.2 2.6-0.29 3.57-2.5 4.92-2.31 1.42-4.1 1.56-11.25 0.91-4.68-0.43-9.13-1.08-9.89-1.44-0.77-0.36-1.95-1.78-2.62-3.15-0.77-1.57-1.04-4.74-0.71-8.5 0.5-5.78 0.44-5.94-1.38-4.5-1.04 0.82-2.49 2.06-3.22 2.75-0.73 0.69-1.74 1.25-2.25 1.25-0.51 0-1.22-0.79-1.57-1.75-0.48-1.28 0.67-2.87 9.14-10.08l-4.5-0.34c-3.19-0.23-4.5-0.77-4.5-1.83 0-0.98 1.2-1.61 3.5-1.83 1.93-0.19 4.11-0.86 4.86-1.5 1.11-0.96 0.84-1.56-4.36-5.45l3-3.61c1.65-1.99 3.23-3.62 3.5-3.64 0.27-0.01 1.62 1.13 3 2.53 1.37 1.4 3.51 2.54 4.75 2.53 1.24-0.02 2.46-0.59 2.72-1.28 0.26-0.69 1-2.54 1.65-4.11 0.99-2.41 1.42-2.67 2.76-1.63zm-12.08 12.57c0.13 0.96 1.51 1.42 4.2 1.42 3.24 0 3.95-0.33 3.74-1.75-0.16-1.06-1.24-1.83-2.75-1.94-1.37-0.11-3.14 0.04-3.94 0.33-0.8 0.29-1.36 1.16-1.25 1.94zm-1.98 9.14c0.13 1.39 1.22 1.84 4.93 2.06 2.61 0.15 5.54 0.03 6.5-0.25 0.96-0.29 1.75-0.98 1.75-1.53 0-0.55-1.35-1.68-3-2.5-1.65-0.83-3.56-1.47-4.25-1.44-0.69 0.04-2.34 0.47-3.68 0.97-1.46 0.54-2.36 1.62-2.25 2.69zm2.43 8.82c0.69 0.85 1.93 1.51 2.75 1.47 0.82-0.04 2.4-0.75 3.5-1.58 1.72-1.3 1.79-1.64 0.5-2.45-0.82-0.52-2.72-0.96-4.2-0.96-1.49-0.01-2.95 0.43-3.25 0.98-0.3 0.55 0.01 1.7 0.7 2.54zm-21.56-28.36c0.86 0.17 2.64 1.67 3.96 3.32 2.11 2.64 2.21 3.15 0.87 4.25-1.26 1.03-2.07 0.77-4.68-1.5-2.29-2-2.96-3.25-2.43-4.57 0.39-1.01 1.42-1.68 2.28-1.5zm-4.27 12.85c0.59 0.01 2.54 1.14 4.33 2.5 2.5 1.9 3.02 2.82 2.25 3.97-0.88 1.32-1.41 1.29-4.48-0.25-1.91-0.96-3.82-2.51-4.23-3.44-0.42-0.93-0.35-1.95 0.14-2.25 0.5-0.31 1.39-0.55 1.99-0.53zm7.78 13.64c0.43 0.45-0.17 3.75-1.33 7.33-1.17 3.57-2.77 7.17-3.56 8-1.27 1.33-1.59 1.27-2.84-0.5-1.21-1.73-1.2-2.48 0.12-5.5 0.84-1.93 2.72-5 4.18-6.83 1.45-1.84 2.99-2.96 3.43-2.5z"/>
</svg>