<svg version="1.2" xmlns="http://www.w3.org/2000/svg" viewBox="0 0 518 518" width="128" height="128">
	<style>
		.s0 { fill: #020202 } 
	</style>
	<path id="Path 0" fill-rule="evenodd" class="s0" d="m351 0l-0.6 3.75c-0.33 2.06-1.96 8.47-3.61 14.25-1.66 5.78-6.41 19.27-10.55 30-4.15 10.73-10.58 27.15-14.3 36.5-3.71 9.35-11.46 28.25-17.21 42-5.74 13.75-13.39 31.3-16.99 39-3.61 7.7-11.32 23.79-17.15 35.75-5.82 11.96-10.25 21.97-9.84 22.23 0.41 0.27 4.8-3.69 9.75-8.79 4.95-5.1 17.1-17.97 27-28.58 9.9-10.62 20.7-21.67 24-24.55 3.3-2.89 8.02-6.54 10.5-8.11 3.55-2.27 5.66-2.87 10-2.87 4.08 0.01 7.18 0.81 12 3.11 4.05 1.92 7.92 4.74 10.28 7.45 2.07 2.4 4.42 6.39 5.22 8.86 0.8 2.47 1.91 8.55 2.46 13.5 0.56 4.95 1.69 21.94 2.52 37.75 1.17 22.02 1.28 32.2 0.5 43.5-0.56 8.11-1.69 21.5-2.52 29.75-0.82 8.25-2.42 22.87-3.56 32.5-1.14 9.62-3.14 23.57-4.44 31-1.3 7.43-4.86 24.07-7.92 37-3.06 12.93-6.94 27.77-8.64 33-1.69 5.23-4.67 13.77-6.61 19-1.95 5.23-5 12.43-6.8 16-1.79 3.57-5.28 8.75-7.75 11.5-2.48 2.75-8.27 7.23-12.87 9.97-5.71 3.39-9.8 5.11-12.87 5.41-2.48 0.24-5.85-0.08-7.5-0.7-1.91-0.73-4.7-3.6-7.69-7.91-2.58-3.73-6.18-8.16-8-9.86-1.82-1.69-6.24-4.87-9.81-7.04-3.57-2.18-10.1-5.59-14.5-7.58-4.4-1.99-11.82-4.65-16.5-5.9-6.28-1.67-11.37-2.28-19.5-2.33-10.35-0.06-11.25 0.1-15.25 2.69-2.34 1.51-6.16 3.2-8.5 3.74-2.34 0.54-5.38 2-6.75 3.24-1.37 1.24-3.06 2.82-3.75 3.51-1 1.01-1.73 0.72-3.71-1.49-2.26-2.53-2.69-2.65-5.25-1.47-1.53 0.7-2.92 1.15-3.07 1-0.16-0.16-0.54-2.3-0.85-4.78-0.57-4.46-0.52-4.55 5.78-10.6 3.49-3.35 8.15-7 10.35-8.11 2.2-1.1 7.82-3.42 12.5-5.13 4.68-1.72 16.38-4.69 26-6.59 9.63-1.91 21.78-4 27-4.64 5.23-0.65 11.52-1.39 14-1.65 2.52-0.26 13.52 0.95 25 2.73 16.95 2.65 21.15 3.01 24.25 2.1 2.06-0.61 5.18-2.35 6.94-3.86 1.77-1.54 4.83-6.28 6.92-10.75 2.05-4.4 5.07-12.5 6.71-18 1.63-5.5 4.11-15.63 5.51-22.5 1.4-6.88 3.47-19.25 4.6-27.5 1.13-8.25 2.51-19.95 3.06-26 0.55-6.05 1.28-18.88 1.63-28.5 0.38-10.58 0.16-23.43-0.56-32.5-0.65-8.25-2.07-20.18-3.14-26.5-1.08-6.32-3.27-16.45-4.88-22.5-1.61-6.05-4.3-14.04-5.98-17.75-1.68-3.71-3.51-6.75-4.06-6.75-0.55 0-5.42 4.61-10.83 10.25-5.4 5.64-16.09 16.8-23.75 24.8-7.66 8.01-17.96 19.03-22.9 24.5-4.95 5.47-14.88 16.25-22.09 23.95-8.02 8.57-14.42 14.54-16.51 15.4-2.66 1.09-4.2 1.16-6.92 0.3-2.47-0.77-4.02-2.14-5.25-4.65-0.96-1.95-1.75-4.45-1.75-5.55 0-1.1 2.65-8.86 5.89-17.25 3.24-8.39 12.07-31 19.63-50.25 7.55-19.25 16.35-42.88 19.54-52.5 3.18-9.63 6.99-22.22 8.46-28 1.46-5.78 3.5-14.78 4.51-20 1.73-8.92 1.74-9.61 0.16-11.23-1.6-1.64-2.02-1.42-7.71 4-3.31 3.15-8.71 7.5-12 9.67-3.29 2.17-8.01 4.82-10.48 5.89-2.74 1.19-6.85 1.97-10.5 2-4.37 0.03-7.5-0.65-11.5-2.48-3.03-1.39-7.98-4.96-11.02-7.94-3.04-2.97-10.77-11.49-17.19-18.91-6.41-7.43-13.28-15.3-15.25-17.5-1.98-2.2-4.93-6.81-6.57-10.25-1.63-3.44-3.42-6.25-3.97-6.25-0.55 0-1.18-0.79-1.41-1.75-0.22-0.96-0.22-2.76 0-4 0.23-1.24 1.09-2.25 1.91-2.25 0.82 0 4.76 1.52 8.75 3.37 3.99 1.85 8.82 3.86 10.75 4.47 1.93 0.6 5.19 1.34 7.25 1.63 2.42 0.34 4.9 1.68 7 3.78 1.79 1.79 5.1 5.5 11.48 13.25l6.88-0.1c3.95-0.05 10.09-1.05 14.39-2.32 4.13-1.23 11.32-4.28 16-6.78 4.68-2.5 11.65-6.82 15.5-9.61 3.85-2.78 11.95-9.34 18-14.57 6.05-5.24 15.73-13.81 21.5-19.06 5.77-5.25 11.4-10.54 12.5-11.74 1.84-2.03 2.96-2.2 26.5-2.32zm132.5 411.69c12.65 0.23 23.9 0.61 25 0.84 1.1 0.23 2.95 1.89 4.12 3.69 2.04 3.18 2.1 4.26 1.94 34.78-0.1 17.32-0.49 32.06-0.87 32.75-0.38 0.69 0.07 5.64 0.99 11 1.57 9.13 1.57 10.05 0 14.5-1 2.82-2.6 5.2-3.93 5.86-1.4 0.7-6.97 1.01-14.75 0.82-7.89-0.19-13.24 0.12-14.5 0.82-1.39 0.78-13.82 1.06-79.78 0.75l-1.9-2.5c-1.73-2.29-1.89-4.34-1.79-24 0.06-11.82 0.16-23.75 0.22-26.5 0.07-2.75-0.02-8.82-0.2-13.5-0.17-4.68-0.22-13.45-0.09-19.5 0.13-6.05 0.71-11.9 1.3-13 0.59-1.1 1.78-2.53 2.65-3.19 0.88-0.65 4.74-1.72 8.59-2.36 3.94-0.67 10.5-0.92 15-0.6 4.4 0.32 14.07 0.21 21.5-0.25 7.43-0.47 23.85-0.65 36.5-0.41zm-77.32 8.62c-0.98 0.88-1.29 4.53-1.18 14.19 0.08 7.15-0.08 19.98-0.35 28.5-0.27 8.52-0.54 22.48-0.61 31-0.07 8.52 0.23 15.84 0.67 16.25 0.43 0.42 17.22 0.77 37.29 0.79 20.07 0.02 41.9-0.26 48.5-0.64 6.6-0.37 13.01-1.07 14.25-1.54 2.09-0.8 2.25-1.47 2.28-9.61 0.01-4.81 0.01-12.01 0-16-0.02-3.99-0.08-8.94-0.14-11-0.05-2.06 0.15-5.1 0.45-6.75 0.31-1.65 0.65-12.45 0.76-24 0.11-11.55-0.09-21.56-0.45-22.25-0.51-0.97-9.34-1.2-39.9-1.03-21.59 0.11-43.98 0.36-49.75 0.55-6.27 0.2-11.03 0.82-11.82 1.54zm-288.86-386.26c0.65 0.03 4.08 1.49 7.63 3.25 3.55 1.76 6.92 3.99 7.5 4.95 0.75 1.25 0.7 2.31-0.2 3.75-0.69 1.1-0.91 2.2-0.5 2.44 0.41 0.24 4.69-0.66 9.5-2 4.81-1.34 9.76-2.45 11-2.46 1.24-0.01 3.08 0.56 4.09 1.25 1.51 1.04 1.6 1.47 0.5 2.35-0.74 0.59-6.51 2.52-12.84 4.29-6.32 1.76-12.74 3.64-14.25 4.17-1.51 0.53-2.52 1.41-2.25 1.96 0.28 0.55 2.53 1 5 1 2.48 0 6.3 0.67 8.5 1.5 3.2 1.2 4 2 4 4 0 2.19 0.43 2.5 3.5 2.5 1.93 0 3.84 0.13 4.25 0.3 0.41 0.16 1.76 0.61 3 1 1.9 0.59 2.16 1.21 1.7 3.95-0.3 1.79-1.09 3.87-1.75 4.62-0.66 0.76-2.77 2.2-4.7 3.21-1.93 1.02-4.17 2.28-5 2.82-1.27 0.82-1.07 1.37 4 6.1l-2.11 2.75c-1.17 1.51-1.84 3.31-1.5 4 0.37 0.76 2.68 1.26 5.86 1.28 2.98 0.02 6.12 0.67 7.25 1.49 1.46 1.07 1.81 2.07 1.29 3.72-0.52 1.67-2.42 2.85-13.79 6.76v4.5c0 3.61 0.35 4.5 1.75 4.52 0.96 0.01 3.78-0.69 6.25-1.56 2.48-0.86 7.2-2.2 10.5-2.96 3.93-0.9 6.6-1.05 7.75-0.44 0.96 0.52 1.75 1.84 1.75 2.94 0 1.1-1.12 2.67-2.5 3.5-1.37 0.82-5.76 1.9-9.75 2.39-3.99 0.49-9.12 1.5-11.4 2.25-4 1.31-4.17 1.55-4.74 6.36-0.33 2.75-0.58 11.75-0.56 20 0.03 13.4-0.17 15.27-1.92 17.5-1.71 2.18-2.9 2.55-9.3 2.87-4.03 0.21-11.1-0.24-15.71-1-6.09-0.99-8.97-1.97-12.62-5.75l-14.5 8.01c-7.97 4.4-15.97 9.43-17.77 11.19-1.8 1.75-3.28 3.85-3.29 4.68-0.02 0.82 0.69 2.17 1.56 3 0.87 0.82 1.57 2.51 1.54 3.75-0.03 1.87 0.34 2.14 2.21 1.6 1.24-0.35 4.95-1.86 8.25-3.34 3.3-1.49 8.14-3.44 10.75-4.35 2.61-0.92 5.65-1.44 6.75-1.16 1.1 0.27 2.01 1.29 2.01 2.25 0.01 1.12-1.33 2.23-3.75 3.1-2.07 0.74-9.06 3.89-15.54 7-6.48 3.11-11.75 5.87-11.73 6.15 0.03 0.27 2.86 2.41 6.28 4.75 3.43 2.34 9.2 6.84 12.84 10 3.63 3.16 8.36 6.28 10.5 6.93 2.14 0.65 9.74 1.93 16.89 2.84 7.15 0.91 13.34 1.84 13.75 2.07 0.41 0.22 0.75 1.08 0.75 1.91 0 0.82-1.12 1.95-2.5 2.5-1.37 0.55-7.34 1.3-13.25 1.66-10.06 0.62-11.06 0.51-15.63-1.75-2.69-1.32-9.89-6.85-16-12.27-6.12-5.42-11.79-10.23-12.62-10.68-1.2-0.65-2.04 0.81-4.19 7.36-1.97 6-3.86 9.52-7.09 13.18-3.41 3.88-6.27 5.83-12.81 8.71-4.62 2.03-11.33 4.84-14.91 6.23-3.57 1.39-7.29 2.54-8.25 2.55-0.96 0-1.75-0.67-1.75-1.49 0-0.83 2.14-3 4.75-4.84 2.61-1.83 7.68-5.09 11.25-7.24 3.58-2.15 8.64-5.6 11.25-7.66 2.61-2.07 5.84-5.67 7.18-8.01 1.34-2.34 2.69-5.49 3-7 0.55-2.64 0.44-2.73-2.68-2.15-2.31 0.43-5.63-0.3-11.5-2.5-5.29-1.99-8.25-3.64-8.25-4.6 0-0.83 0.45-1.28 1-1 0.55 0.27 3.14 0.09 5.75-0.41 2.61-0.5 7.35-1.51 10.52-2.25 3.17-0.74 5.81-1.79 5.86-2.34 0.05-0.55 0-2.13-0.12-3.5-0.12-1.38-1.52-4.98-3.12-8-2.22-4.19-3.9-5.98-7.06-7.5-2.28-1.1-4.19-2.45-4.24-3-0.05-0.55 3.29-1.29 7.41-1.64 4.13-0.36 9.08-1.13 11-1.73 1.93-0.59 8-2.91 13.5-5.15 5.5-2.23 12.7-5.57 16-7.4 4.11-2.28 6.47-4.35 7.5-6.57 0.83-1.78 3.75-4.93 6.5-7 2.75-2.07 6.13-4.34 7.5-5.05 1.38-0.71 4.08-1.63 6-2.05 1.93-0.42 4.29-0.35 5.25 0.16 0.96 0.51 1.75 2.05 1.75 3.43 0 1.61-1.15 3.44-3.25 5.14-1.79 1.45-4.28 3.14-5.53 3.75-1.25 0.61-2.26 1.67-2.25 2.36 0.02 0.79 1.51 1.25 4.03 1.25 2.2 0 5.69-0.7 7.75-1.56 2.06-0.86 4.55-2.32 5.53-3.25 1.51-1.43 1.78-3.42 1.75-12.94-0.02-6.19-0.25-11.25-0.53-11.25-0.27 0-9.61 3.19-20.75 7.08-18.69 6.53-20.67 7.03-25.75 6.42-3.02-0.36-6.62-1.36-8-2.22-1.37-0.85-3.5-2.73-4.71-4.17-1.22-1.43-2.24-3.29-2.27-4.11-0.05-1.21 0.66-1.35 3.71-0.7 2.07 0.45 5.35 1.05 7.27 1.35 1.93 0.3 8.9-0.37 15.5-1.5 6.6-1.13 17.18-3.7 23.5-5.71 6.33-2.02 11.83-4.17 12.23-4.8 0.41-0.63 0.75-2.6 0.75-4.39 0.01-1.79-0.32-3.45-0.73-3.69-0.41-0.24-3.79 0.66-7.5 2-3.71 1.34-7.99 2.46-9.5 2.48-1.51 0.03-3.31-0.65-4-1.5-0.71-0.87-1.04-2.95-0.76-4.79 0.27-1.79 1.28-4.36 2.25-5.71 0.97-1.35 3.9-4.17 11.26-10.04h-4c-3.6 0-4-0.25-4-2.5 0-1.8 1.61-3.89 5.75-7.47 5.56-4.81 5.71-5.06 4.48-7.75-0.84-1.84-2.88-3.45-6-4.75-2.6-1.08-5.52-2.77-6.48-3.75-1.68-1.7-1.82-1.66-3.38 0.97-0.9 1.51-3.43 5.45-5.62 8.75-2.72 4.09-3.79 6.64-3.37 8 0.33 1.1 0.05 5.48-0.64 9.73-1.18 7.33-1.14 7.79 0.76 9.14 1.8 1.28 1.88 1.81 0.83 5.27-0.64 2.12-1.63 5.66-2.19 7.86-0.57 2.2-1.95 5.24-3.08 6.75-1.13 1.51-2.62 2.77-3.31 2.79-0.69 0.03-1.83-0.53-2.54-1.25-1.06-1.05-1.03-3.94 0.12-15.79 0.77-7.98 1.23-14.73 1.02-15-0.22-0.28-2.3 1.35-4.62 3.61-2.33 2.26-6.7 6.03-9.73 8.37-3.02 2.34-9.44 6.23-14.25 8.64-5.96 2.98-10.02 4.38-12.75 4.38-2.7 0-3.9-0.41-3.69-1.25 0.17-0.69 2.39-2.6 4.93-4.25 2.54-1.65 8.3-5.25 12.82-8 4.51-2.75 10.73-7.29 13.82-10.09 3.09-2.8 8.48-8.88 11.98-13.5 3.51-4.63 7.67-11 9.25-14.16 1.59-3.16 2.89-5.98 2.89-6.25 0-0.28-3.71 0.79-8.25 2.36-4.54 1.57-10.5 3.18-13.25 3.57-2.75 0.4-7.02 0.46-9.5 0.13-2.47-0.33-5.51-1.49-6.75-2.58-1.24-1.09-2.25-2.43-2.25-2.98 0-0.55 1.01-2.16 2.25-3.58 2.12-2.43 2.87-2.59 13.25-2.9 6.05-0.18 14.6-1.05 19-1.94 4.4-0.89 8.33-1.94 8.74-2.35 0.41-0.4 1.25-3.66 1.86-7.23 0.61-3.58 1.09-7.74 1.07-9.25-0.02-1.51 0.5-2.73 1.15-2.7zm3.59 30.88c0.05 0.59 1.89 1.07 4.09 1.07 2.2 0 3.98-0.34 3.94-0.75-0.03-0.41-1.33-1.78-2.9-3.03-2.81-2.25-2.87-2.25-4.04-0.32-0.65 1.08-1.14 2.45-1.09 3.03zm76.09 168.12c1.38-0.04 4.86 0.61 7.75 1.44 3.14 0.9 5.86 2.41 6.76 3.76 0.83 1.24 1.5 3.49 1.5 5-0.01 1.77-1.35 4.24-3.76 6.9-2.06 2.29-9.15 8.67-15.75 14.19-6.6 5.52-16.43 14.34-21.85 19.6-5.42 5.26-11.7 12.26-13.96 15.56-2.25 3.3-5.52 9.37-7.26 13.5-1.74 4.12-4.09 10.87-5.22 15-1.13 4.12-3.41 13.57-5.06 21-1.65 7.42-3.23 15.52-3.52 18-0.28 2.47-0.2 5.26 0.18 6.2 0.58 1.42 2.8 0.22 13.69-7.4 7.15-5.01 16.59-12.07 20.97-15.7 4.38-3.63 19.8-17.51 34.25-30.85 20.19-18.63 27.15-24.48 30.03-25.23 2.06-0.54 5.51-0.65 7.66-0.25 2.15 0.4 4.96 1.74 6.25 2.98 1.29 1.24 2.61 3.26 2.93 4.5 0.38 1.44-0.48 4.41-2.38 8.25-2.01 4.07-8.84 12.6-21.19 26.5-10.03 11.27-22.35 24.71-27.38 29.86-5.02 5.15-14.58 14.15-21.24 20-6.65 5.85-20.1 16.94-29.87 24.64-9.78 7.7-21.21 16.63-25.4 19.84-4.2 3.21-11.23 8.21-15.63 11.1-4.4 2.9-11.26 6.91-15.25 8.91-3.99 2.01-10.62 4.77-14.75 6.15-4.12 1.37-9.19 2.5-11.25 2.51-2.06 0.01-6-0.65-8.75-1.46-3.06-0.9-6.2-2.74-8.11-4.76-1.7-1.81-4.44-5.32-6.08-7.79-1.64-2.48-7.04-11.48-11.99-20-4.96-8.53-11.61-20.23-14.78-26-3.18-5.78-6.02-12.08-6.31-14-0.3-1.93-1.26-4.56-2.14-5.85-1.47-2.18-1.44-2.6 0.41-5.78 1.1-1.89 2.45-3.41 3-3.39 0.55 0.03 3.93 1.79 7.5 3.92 4.12 2.45 9.28 6.93 14.08 12.23 4.17 4.6 9.23 9.16 11.25 10.12 2.72 1.3 6.2 1.75 13.42 1.75 5.36 0 13.58-0.68 18.25-1.51 4.68-0.83 11.88-2.45 16-3.61 4.13-1.15 8.13-2.61 8.89-3.24 1.15-0.94 1.27-4.41 0.7-19.64-0.39-10.18-1.13-23-1.66-28.5-0.52-5.5-2.58-17.2-4.57-26-1.99-8.8-4.13-16.8-4.74-17.78-0.62-0.97-2.69-2.17-4.62-2.66-1.92-0.49-15.65-2.73-30.5-4.98-14.85-2.25-30.6-4.77-35-5.6-4.91-0.92-9.16-2.38-11-3.77-1.65-1.25-4.24-2.82-5.75-3.49-1.51-0.67-3.09-1.91-3.5-2.76-0.44-0.89-0.19-2.04 0.58-2.75 0.73-0.66 6.58-2 13-2.97 6.42-0.96 17.75-2.69 25.17-3.83 12.16-1.87 15.93-2.01 38-1.36 13.47 0.4 25.85 0.65 27.5 0.55 1.65-0.1 8.63-1.96 15.5-4.14 6.88-2.18 26-9.1 42.5-15.4 16.5-6.29 31.13-11.47 32.5-11.51zm245.5 188.05c1.65-0.04 3.68 0.34 4.5 0.84 1.33 0.8 1.33 1.08 0 2.53-0.82 0.89-2.48 1.6-3.68 1.57-1.2-0.02-2.88 0.63-3.75 1.46-0.86 0.82-1.58 1.84-1.59 2.25-0.01 0.41 0.56 1.32 1.25 2.02q1.28 1.26 10.52 1.25c5.69-0.01 9.54 0.41 10 1.09 0.41 0.61 0.07 1.51-0.75 1.99-0.82 0.48-4.99 0.88-9.25 0.88-4.49 0.01-7.75 0.44-7.75 1.02 0 0.55 1.91 2.55 4.25 4.43 2.34 1.89 5.94 4.14 8 5 2.06 0.87 4.54 1.55 5.5 1.53 0.96-0.03 2.31 0.53 3 1.25 0.69 0.71 1.03 2.08 0.75 3.04-0.27 0.96-1.06 1.75-1.75 1.74-0.69 0-2.94-0.45-5-1-2.45-0.65-6.08-3.24-10.5-7.49-5.44-5.24-7-6.26-8.03-5.25-0.71 0.69-1.16 2.37-1 3.75 0.22 1.94 1.18 2.78 4.28 3.77 2.2 0.7 4.7 2.05 5.55 3 0.85 0.95 1.91 4.65 2.35 8.23 0.44 3.57 0.53 7.51 0.2 8.75-0.38 1.43-1.79 2.61-3.85 3.22-1.79 0.53-7.22 1.1-12.08 1.25-7.87 0.25-8.99 0.06-10.27-1.72-0.93-1.3-1.43-4.52-1.42-9.25 0.02-6.33 0.24-7.22 1.77-6.99 0.96 0.14 1.88 1.16 2.04 2.25 0.28 1.82 0.88 1.95 7.26 1.49 5.18-0.37 6.96-0.18 6.96 0.75-0.01 0.69-1.13 1.7-2.51 2.25-1.37 0.55-4.52 1-7 1-3.83 0-4.5 0.3-4.5 2 0 1.1 1.01 2.51 2.25 3.14 1.42 0.72 4.66 0.91 8.75 0.53 3.57-0.34 7.12-1.19 7.87-1.89 0.96-0.9 1.2-2.75 0.82-6.28-0.3-2.75-1.27-5.68-2.16-6.5-1.13-1.05-3.45-1.44-7.82-1.3-3.42 0.11-6.89-0.16-7.71-0.61-1.2-0.66-0.85-1.29 1.77-3.2 2.04-1.49 3.27-3.24 3.25-4.64-0.01-1.24-0.47-2.48-1.02-2.75-0.55-0.28-2.24 0.16-3.75 0.97-1.51 0.81-3.08 1.14-3.47 0.75-0.4-0.4-0.29-1.51 0.25-2.47 0.53-0.96 0.86-1.94 0.72-2.17-0.14-0.23-2.95-0.53-6.25-0.67-3.3-0.15-6.81-0.52-7.81-0.84-0.99-0.31-1.66-1.25-1.48-2.07 0.24-1.18 2.56-1.61 10.8-2 9.97-0.48 10.5-0.61 10.74-2.75 0.17-1.54-0.3-2.28-1.5-2.34-0.96-0.05-3.66-0.05-6 0-2.34 0.05-4.25-0.36-4.25-0.91 0-0.55 0.56-1.32 1.25-1.72 0.69-0.39 5.07-1.48 9.75-2.41 4.68-0.93 9.85-1.73 11.5-1.77zm-21.29 24.47c0.54 0.3 0.95 0.97 0.89 1.49-0.05 0.52-1.52 2.18-3.25 3.69-1.73 1.51-4.09 3.3-5.25 3.96-1.15 0.67-3.11 1.24-4.35 1.25-1.35 0.03-2.25-0.56-2.25-1.46 0-0.83 1.24-2.12 2.75-2.88 1.51-0.76 4.48-2.55 6.6-3.99 2.12-1.43 4.31-2.36 4.86-2.06zm66.63 13.62c0.98 0.19 1.76 1.45 1.91 3.07 0.19 2.12 0.76 2.73 2.5 2.7 1.24-0.03 2.81 0.65 3.5 1.5 1 1.23 1 1.63 0 1.99-0.69 0.25-2.37 0.59-3.74 0.75-1.46 0.18-2.6 1.03-2.75 2.05-0.18 1.21 0.6 1.92 2.49 2.3 1.51 0.3 4.1 0.88 5.75 1.29 1.83 0.45 3.15 1.5 3.38 2.7 0.35 1.79-0.06 1.92-4.74 1.46-2.82-0.28-5.12-0.16-5.13 0.25-0.01 0.41 2.13 2.06 4.74 3.67 2.61 1.6 5.65 3.69 6.75 4.64 1.87 1.61 1.89 1.78 0.25 2.58-1.25 0.61-3.19 0-6.75-2.14-2.75-1.65-5.45-2.78-6-2.5-0.55 0.27-0.99 1.29-0.98 2.25 0.01 0.96-0.56 2.53-1.25 3.48-0.8 1.08-3.14 1.92-6.27 2.23-2.75 0.28-5.3 1.08-5.66 1.78-0.37 0.69-0.4 1.93-0.08 2.76 0.33 0.82 1.08 1.83 1.67 2.23 0.59 0.41 4.24 0.75 8.12 0.75 4.34 0.01 7.52-0.46 8.27-1.23 0.67-0.69 1.21-2.04 1.2-3-0.01-1.1 0.63-1.65 1.73-1.49 1.19 0.17 1.83 1.3 2 3.5 0.2 2.6-0.3 3.58-2.5 4.95-2.45 1.52-3.8 1.59-12.25 0.61-7.3-0.86-9.79-1.54-10.77-2.97-0.74-1.08-1.26-4.86-1.23-16.35l-3.25 3.01c-1.79 1.65-3.59 3-4 3-0.41-0.01-1.04-0.8-1.39-1.76-0.48-1.28 0.67-2.89 4.25-5.96 2.69-2.32 4.44-4.27 3.89-4.34-0.55-0.07-2.57-0.2-4.5-0.29-2.37-0.11-3.5-0.64-3.5-1.66 0-0.98 1.2-1.61 3.5-1.83 1.93-0.19 4.11-0.86 4.86-1.5 1.11-0.96 0.84-1.56-4.36-5.45l3-3.61c1.65-1.99 3.23-3.62 3.5-3.64 0.27-0.01 1.63 1.13 3 2.53 1.5 1.53 3.6 2.54 5.25 2.53 1.51-0.02 2.75-0.48 2.75-1.03 0-0.55 0.23-1.45 0.5-2 0.27-0.55 0.54-1.71 0.59-2.57 0.05-0.91 0.79-1.44 1.75-1.24zm-7.17 13.56c2.02-0.14 3.82-0.81 4-1.5 0.22-0.85-0.96-1.25-3.67-1.25-2.89 0-4 0.42-4 1.5 0 1.11 0.96 1.43 3.67 1.25zm-5.85 8.22c0.16 1.79 0.87 2.03 6.18 2.03 3.78 0 6.24-0.46 6.66-1.25 0.37-0.71-0.38-2.02-1.75-3.04-1.33-0.99-3.31-1.75-4.41-1.69-1.1 0.06-3.09 0.51-4.43 1.01-1.6 0.59-2.37 1.6-2.25 2.94zm2.43 8.57c0.69 0.85 1.93 1.54 2.75 1.52 0.82-0.01 2.4-0.7 3.5-1.52 1.73-1.3 1.79-1.64 0.5-2.51-0.82-0.55-2.72-1.01-4.2-1.01-1.49-0.01-2.95 0.43-3.25 0.98-0.3 0.55 0.01 1.7 0.7 2.54zm-21.56-28.36c0.86 0.17 2.64 1.67 3.96 3.32 2.11 2.64 2.21 3.15 0.87 4.25-1.26 1.03-2.07 0.77-4.68-1.5-2.29-2-2.96-3.25-2.43-4.57 0.39-1.01 1.42-1.68 2.28-1.5zm-3.77 12.81c0.32-0.01 2.15 1.3 4.08 2.92 3.22 2.69 3.34 2.98 1.5 3.62-1.1 0.38-3.25 0.08-4.79-0.67-1.53-0.75-2.85-2.07-2.92-2.94-0.07-0.87 0.25-1.89 0.71-2.25 0.46-0.37 1.1-0.68 1.42-0.68zm7.28 13.68c0.43 0.45-0.17 3.75-1.33 7.33-1.17 3.57-2.77 7.17-3.56 8-1.27 1.33-1.59 1.27-2.84-0.5-1.21-1.73-1.2-2.48 0.12-5.5 0.84-1.93 2.72-5 4.18-6.83 1.45-1.84 2.99-2.96 3.43-2.5z"/>
</svg>